<svg xmlns="http://www.w3.org/2000/svg" viewBox="0 0 355.93 80.52"><defs><style>.cls-1{fill:#0075c9;}.cls-2{fill:#1c2225;}</style></defs><title>Asset 34</title><g id="Layer_2" data-name="Layer 2"><g id="Layer_1-2" data-name="Layer 1"><path class="cls-1" d="M105.41,13.18V36.71a2.06,2.06,0,0,1-.62,1.5,2.12,2.12,0,0,1-3,0,2.06,2.06,0,0,1-.62-1.5V13.18H95a2,2,0,0,1-1.49-.62,2,2,0,0,1-.63-1.5A2.15,2.15,0,0,1,95,8.94h16.55a2.12,2.12,0,0,1,1.5,3.62,2,2,0,0,1-1.5.62Z"/><path class="cls-1" d="M138.21,26.24a10.22,10.22,0,0,1-1.58.12h-6.4V36.71a2.06,2.06,0,0,1-.62,1.5,2,2,0,0,1-1.5.62,2,2,0,0,1-1.49-.62,2,2,0,0,1-.63-1.5V11.15A2.15,2.15,0,0,1,128.11,9h8.52a8.66,8.66,0,0,1,8.69,8.66,8.38,8.38,0,0,1-2.53,6.14c-.24.23-.47.44-.69.62l6.46,11.22a2,2,0,0,1,.3,1,2,2,0,0,1-.09.58,2,2,0,0,1-1,1.29,2,2,0,0,1-1.61.21,2,2,0,0,1-1.28-1Zm-1.58-13.06h-6.4v9h6.4a4.51,4.51,0,0,0,4.51-4.51,4.29,4.29,0,0,0-1.32-3.17A4.34,4.34,0,0,0,136.63,13.18Z"/><path class="cls-1" d="M168.23,30.52l-3.45,7.11a2.56,2.56,0,0,1-.41.6,2.07,2.07,0,0,1-1.48.6,2,2,0,0,1-1.48-.61,2,2,0,0,1-.6-1.47,1.92,1.92,0,0,1,.31-1.08l12.33-25.4a1.93,1.93,0,0,1,.43-.62A2,2,0,0,1,175.36,9a2,2,0,0,1,1.48.63,2.25,2.25,0,0,1,.39.54l12.33,25.4a2.09,2.09,0,0,1-3.2,2.64,2.11,2.11,0,0,1-.42-.6h0l-3.45-7.11Zm12.22-4.16-5.09-10.5-5.11,10.5Z"/><path class="cls-1" d="M204.4,38.83a2,2,0,0,1-1.49-.62,2,2,0,0,1-.63-1.5V11.15A2.15,2.15,0,0,1,204.4,9h8.21a14.36,14.36,0,0,1,10.54,4.37,14.36,14.36,0,0,1,4.37,10.54,14.38,14.38,0,0,1-4.37,10.54,14.35,14.35,0,0,1-10.54,4.36Zm8.21-25.56h-6.09V34.59h6.09a10.27,10.27,0,0,0,7.54-3.13,10.27,10.27,0,0,0,3.13-7.53,10.27,10.27,0,0,0-3.13-7.53A10.27,10.27,0,0,0,212.61,13.27Z"/><path class="cls-1" d="M243.13,9.65a2,2,0,0,1,.63,1.5V36.71a2,2,0,0,1-.63,1.5,2.12,2.12,0,0,1-3.61-1.5V11.15a2.11,2.11,0,0,1,3.61-1.5Z"/><path class="cls-1" d="M260.24,17.09V36.71a2.06,2.06,0,0,1-.62,1.5,2.12,2.12,0,0,1-3,0,2.06,2.06,0,0,1-.62-1.5V11.15a2.11,2.11,0,0,1,3.62-1.5,2.25,2.25,0,0,1,.39.54l16.78,20.7V11.15A2.13,2.13,0,0,1,278.91,9,2.15,2.15,0,0,1,281,11.15V36.71a2,2,0,0,1-.63,1.5,2,2,0,0,1-1.49.62,2,2,0,0,1-1.5-.62l-.17-.15Z"/><path class="cls-1" d="M318.67,13.39A14.36,14.36,0,0,1,323,23.93a14.38,14.38,0,0,1-4.37,10.54,14.91,14.91,0,0,1-21.07,0,14.38,14.38,0,0,1-4.37-10.54,14.36,14.36,0,0,1,4.37-10.54,14.88,14.88,0,0,1,21.07,0Zm-10.53-.12a10.26,10.26,0,0,0-7.55,3.13,10.26,10.26,0,0,0-3.12,7.53,10.67,10.67,0,0,0,10.67,10.66,10.25,10.25,0,0,0,7.53-3.13,10.23,10.23,0,0,0,3.13-7.53,10.23,10.23,0,0,0-3.13-7.53A10.25,10.25,0,0,0,308.14,13.27Z"/><path class="cls-1" d="M335.14,28.44a2.07,2.07,0,0,1,2.08-2.08,2.1,2.1,0,0,1,2.08,2.08,6,6,0,0,0,1.82,4.41,6.24,6.24,0,0,0,10.65-4.41,6.25,6.25,0,0,0-6.24-6.24A6.54,6.54,0,0,1,339,15.66a6.55,6.55,0,0,1,10.91-4.89l.23.19a2,2,0,0,1,.6,1.47,2,2,0,0,1-.61,1.48,2,2,0,0,1-1.47.6,2,2,0,0,1-1.47-.6l-.15-.14,0,0a2.27,2.27,0,0,0-1.48-.52,2.31,2.31,0,0,0-1.69.69,2.4,2.4,0,0,0,1.69,4.09,10.4,10.4,0,0,1,10.4,10.39,10.4,10.4,0,1,1-20.79,0Z"/><path class="cls-1" d="M58.7,30.92A23.29,23.29,0,0,0,49,33.05a16,16,0,0,1-3.1-6.84,18.09,18.09,0,0,1-.25-2.06l2.55,2.27a3.06,3.06,0,1,0,4.07-4.56L40.74,11.64,31.25,23.09A3.05,3.05,0,0,0,36,27l2.3-2.78a25.75,25.75,0,0,0,.4,3.38A23.14,23.14,0,0,0,45.7,40.31l2.07,1.91,2.38-1.5a16,16,0,1,1-1,26.48,3.67,3.67,0,0,0-4.35,5.9A23.17,23.17,0,0,0,58.7,77.67a23.38,23.38,0,0,0,0-46.75Z"/><path class="cls-1" d="M21.36,35.05a23.31,23.31,0,0,0,6.72,7.38,15.9,15.9,0,0,1-4.38,6.1,15.22,15.22,0,0,1-1.65,1.25l.69-3.34a3.06,3.06,0,1,0-6-1.24l-3.11,15L28.3,62.74a3.05,3.05,0,0,0,3.16-4.54,3,3,0,0,0-2.13-1.48l-3.56-.61a22.46,22.46,0,0,0,2.73-2A23.13,23.13,0,0,0,36,41.61l.62-2.74-2.49-1.31A16,16,0,1,1,55.49,15.35a15.88,15.88,0,0,1,2,9.81,3.67,3.67,0,0,0,7.29.83,23.37,23.37,0,1,0-43.47,9.06Z"/><path class="cls-1" d="M43.61,65.32a23.34,23.34,0,0,0,3-9.5,15.87,15.87,0,0,1,7.47.73,16.15,16.15,0,0,1,1.91.82l-3.24,1.07a3.05,3.05,0,0,0,1.92,5.8l14.59-4.83L64.12,45.47a3.05,3.05,0,1,0-5.73,2.12L59.64,51a24.81,24.81,0,0,0-3.13-1.35A23.18,23.18,0,0,0,42,49.37l-2.68.84L39.4,53A16,16,0,1,1,9.48,45.61,16,16,0,0,1,17,38.93,3.67,3.67,0,1,0,14,32.21a23.38,23.38,0,0,0-2.34,41.66A23.4,23.4,0,0,0,43.61,65.32Z"/><path class="cls-2" d="M105.27,54.43a2.74,2.74,0,0,1,2-.49,2.17,2.17,0,0,1,1.26.76,1.23,1.23,0,0,1,.17,1.24,1.25,1.25,0,0,1-.85.86c-.41.11-.9.26-1.48.45a8.76,8.76,0,0,0-1.91,1c-.69.46-1.58,1.14-2.66,2a39.06,39.06,0,0,0-3.23,3,10,10,0,0,0-2.24,3.42,10.69,10.69,0,0,0-.67,2.42,4.39,4.39,0,0,0,.16,1.53A2.59,2.59,0,0,0,96.59,72a3,3,0,0,0,1.3.67,5.15,5.15,0,0,0,1.63.13l2.17-.19a20.62,20.62,0,0,0,3.46-.7,21.08,21.08,0,0,0,4.33-1.76,12.7,12.7,0,0,0,2.88-1.87c.46-.47.43-.39-.07.23a8.65,8.65,0,0,1-2.13,1.83q-1.38.88-4.1,2.42a24.91,24.91,0,0,1-4,2,11.9,11.9,0,0,1-2.54.54,8.86,8.86,0,0,1-2.32-.06,4.42,4.42,0,0,1-1.77-.66,6.4,6.4,0,0,1-1.5-1.58,5.3,5.3,0,0,1-1-2.57,8.28,8.28,0,0,1,.23-3,9.9,9.9,0,0,1,1.16-2.73c.51-.81,1.16-1.74,2-2.8a18.76,18.76,0,0,1,3.38-3.34c1.47-1.16,2.57-2,3.3-2.54S104.49,54.9,105.27,54.43Z"/><path class="cls-2" d="M107.89,66.24c.56-2.17,1.1-3.23,1.63-3.19a1.42,1.42,0,0,1,1.1,2.26q-.48.93-.09.87a3,3,0,0,0,1-.47,9.91,9.91,0,0,1,1.21-.66,4.54,4.54,0,0,1,.93-.31A3.35,3.35,0,0,1,115,65a8.07,8.07,0,0,1,1.89.86,2.79,2.79,0,0,0,2.35.09c1-.31.87-.2-.31.31a8.8,8.8,0,0,1-3.65.71,6.39,6.39,0,0,0-2.88.45,8.05,8.05,0,0,0-1.72,1.08,5.46,5.46,0,0,0-1.3,2c-.4.91-.7,1.68-.91,2.31s-.4,1.14-.56,1.53a1.05,1.05,0,0,1-1,.64.94.94,0,0,1-1-.56c-.16-.39-.2-.64-.12-.76a15.16,15.16,0,0,0,.71-2.14Q107.07,69.5,107.89,66.24Z"/><path class="cls-2" d="M122,62.93c1-.07,1.68.1,1.91.53a3.36,3.36,0,0,1,.31,1.64,2.13,2.13,0,0,1-.93,1.69,13.34,13.34,0,0,1-2.42,1.37,2.1,2.1,0,0,1-.76.17,3.2,3.2,0,0,1-.56,0,3,3,0,0,1-.35-.07c-.09,0-.14,0-.15,0a2.63,2.63,0,0,0-.44,1.36,2,2,0,0,0,.45,1.26,1.63,1.63,0,0,0,1,.66,3.09,3.09,0,0,0,1.17,0,17.66,17.66,0,0,0,2.25-.81,8,8,0,0,0,2.28-1.28c.43-.39.84-.78,1.23-1.16s.45-.37.16,0-.62.83-1,1.36a10.81,10.81,0,0,1-1.54,1.58c-.62.53-1.12.93-1.51,1.21a6.13,6.13,0,0,1-1.56.76,4,4,0,0,1-1.91.21,3.51,3.51,0,0,1-1.41-.43,5,5,0,0,1-.86-.73,3.43,3.43,0,0,1-.66-1,4.14,4.14,0,0,1-.27-1.57,5.53,5.53,0,0,1,.47-2.17,7.84,7.84,0,0,1,1.09-1.94A8.62,8.62,0,0,1,119.59,64,6.06,6.06,0,0,1,122,62.93ZM122,65c-.11-.11-.38-.05-.81.17a2.5,2.5,0,0,0-.93.73c-.2.28-.23.48-.11.6s.39.08.8-.15a5.08,5.08,0,0,0,1-.68C122.15,65.48,122.18,65.26,122,65Z"/><path class="cls-2" d="M134.45,63.07a3.08,3.08,0,0,1,1.18,0,2.18,2.18,0,0,1,1,.39,3,3,0,0,1,.73,1.2c.24.6.13,1-.31,1.2a1,1,0,0,1-1.21-.21.9.9,0,0,0-1.12-.22L133.6,66a11,11,0,0,0-1.42,1,12.81,12.81,0,0,0-1.73,1.73,6.53,6.53,0,0,0-1,1.35c-.06.2.09.17.46-.08l1.69-1.14a20.63,20.63,0,0,1,2.85-1.56,4.08,4.08,0,0,1,2.18-.62,1.75,1.75,0,0,1,.79.65,2,2,0,0,1,.37.81.73.73,0,0,1-.1.54,2.81,2.81,0,0,0-.35.9,2.08,2.08,0,0,0,0,1.35,1.77,1.77,0,0,0,.6.9,1.3,1.3,0,0,0,1,.15,3.44,3.44,0,0,0,1.56-1c.62-.57.59-.44-.08.4A7.17,7.17,0,0,1,138.86,73a2,2,0,0,1-.92.33,3,3,0,0,1-.85-.21,3.36,3.36,0,0,1-1-.63,3,3,0,0,1-.74-1,8.17,8.17,0,0,1-.36-.9,1.79,1.79,0,0,0-.43-.64.7.7,0,0,0-.83-.16A11,11,0,0,0,132,70.87a18.79,18.79,0,0,1-2.29,1.47,9.24,9.24,0,0,1-1.91.8,3,3,0,0,1-1.09.15,1.25,1.25,0,0,1-.54-.53,2.21,2.21,0,0,1-.34-1,2.62,2.62,0,0,1,.15-1.09,12.23,12.23,0,0,1,1.5-2.2,19.79,19.79,0,0,1,2.51-2.7A14,14,0,0,1,132.56,64,11.86,11.86,0,0,1,134.45,63.07Z"/><path class="cls-2" d="M145.42,57.92a1,1,0,0,1,.88-.28,1.22,1.22,0,0,1,.89.38,2.55,2.55,0,0,1,.47.79,1.14,1.14,0,0,1-.07,1,8.79,8.79,0,0,0-.49,1.35c-.16.56-.36,1.33-.61,2.33s-.23,1.56,0,1.69a7.09,7.09,0,0,0,1.45.37,17.09,17.09,0,0,0,3.29.14q2.26,0-.24.33c-1.67.25-2.91.48-3.72.68s-1.33.35-1.59.44-.7.95-1.31,2.6-1,2.74-1.22,3.29a2.64,2.64,0,0,1-.62,1.1,2.08,2.08,0,0,1-.84.42,1.36,1.36,0,0,1-.94,0c-.28-.12-.28-.63,0-1.52S141.49,71,142,69.8a17,17,0,0,0,.83-2.27c0-.3-.16-.41-.61-.33a7.14,7.14,0,0,1-1.21.12c-.35,0-.52-.2-.52-.65a1.3,1.3,0,0,1,.86-1.09,3.6,3.6,0,0,1,1.5-.43q.65,0,1.17-1.83c.34-1.21.55-2,.61-2.41s.16-.94.3-1.63A3.23,3.23,0,0,1,145.42,57.92Z"/><path class="cls-2" d="M152,62.84a2.43,2.43,0,0,1,1.18.07c.45.12.53.58.24,1.36s-.61,1.8-.95,3-.67,2.27-1,3a11.17,11.17,0,0,1-1,2q-.57.87-1.08.93a1.17,1.17,0,0,1-.71,0c-.14-.06-.15-.43,0-1.08s.34-1.66.69-3,.68-2.53,1-3.53.31-1.51,0-1.53-.19-.22.35-.6A4.17,4.17,0,0,1,152,62.84Zm3.75-7.1a2.67,2.67,0,0,1,.62,1.84,5.86,5.86,0,0,0,1,2.77,7.48,7.48,0,0,0,2,2.14,8.7,8.7,0,0,0,2.14,1.12c.65.22.63.27-.06.16a5.69,5.69,0,0,1-2-.82A11.27,11.27,0,0,1,157.24,61l-1.71-1.88a2.56,2.56,0,0,0-.76-.67l-.37-.1a3.21,3.21,0,0,1-.71-.47,1,1,0,0,1-.39-1.07,2.12,2.12,0,0,1,.41-.93,1.65,1.65,0,0,1,.9-.46A1.27,1.27,0,0,1,155.77,55.74Z"/><path class="cls-2" d="M163.73,63.87a.9.9,0,0,1,.63-.2A1,1,0,0,1,165,64l.7.69a2.08,2.08,0,0,0,1.17.56,8.3,8.3,0,0,0,2.53-.22c1.19-.22,1.18-.18,0,.13s-2.2.56-3,.75a3.57,3.57,0,0,0-1.8.92c-.42.42-.89,1-1.42,1.61s-1.14,1.5-1.83,2.53S160.22,72.65,160,73a3.06,3.06,0,0,1-.85.94,1,1,0,0,1-1.12.09,1.82,1.82,0,0,1-.89-.84,3.37,3.37,0,0,1-.33-1.31,7.88,7.88,0,0,0-.47-2,15.88,15.88,0,0,0-1-2.35c-.4-.74-.49-1.31-.28-1.68a1.28,1.28,0,0,1,1-.66,1.2,1.2,0,0,1,1.13.47,6,6,0,0,1,.89,1.77,14,14,0,0,1,.54,1.83c.08.41.23.54.47.38A19.87,19.87,0,0,0,161.22,67c1.22-1.66,1.9-2.56,2-2.71A3.73,3.73,0,0,1,163.73,63.87Z"/><path class="cls-2" d="M171.18,62.93c1-.07,1.68.1,1.91.53a3.36,3.36,0,0,1,.31,1.64,2.11,2.11,0,0,1-.93,1.69,13.34,13.34,0,0,1-2.42,1.37,2.1,2.1,0,0,1-.76.17,3.2,3.2,0,0,1-.56,0,3.56,3.56,0,0,1-.35-.07c-.09,0-.14,0-.15,0a2.72,2.72,0,0,0-.44,1.36,2,2,0,0,0,.45,1.26,1.63,1.63,0,0,0,1,.66,3.09,3.09,0,0,0,1.17,0,17.66,17.66,0,0,0,2.25-.81A8,8,0,0,0,175,69.43c.43-.39.84-.78,1.23-1.16s.45-.37.16,0-.62.83-1,1.36a10.81,10.81,0,0,1-1.54,1.58c-.62.53-1.12.93-1.51,1.21a6.13,6.13,0,0,1-1.56.76,4,4,0,0,1-1.91.21,3.51,3.51,0,0,1-1.41-.43,5,5,0,0,1-.86-.73,3.43,3.43,0,0,1-.66-1,4.14,4.14,0,0,1-.27-1.57,5.53,5.53,0,0,1,.47-2.17,7.84,7.84,0,0,1,1.09-1.94A8.93,8.93,0,0,1,168.8,64,6.06,6.06,0,0,1,171.18,62.93Zm0,2.11c-.11-.11-.38-.05-.81.17a2.5,2.5,0,0,0-.93.73c-.2.28-.23.48-.11.6s.39.08.8-.15a5.08,5.08,0,0,0,1-.68C171.36,65.48,171.39,65.26,171.2,65Z"/><path class="cls-2" d="M195.8,50c.12-.13.36-.13.71,0s.6.46.74,1,.17.91.08,1a1.78,1.78,0,0,0-.3.6c-.12.32-.35.93-.7,1.83s-1,2.65-2,5.23-1.64,4.23-1.94,5-.29,1,0,.91a4.8,4.8,0,0,1,1.07-.27c.38-.06.94-.16,1.7-.31s1.7-.38,2.82-.7a8.74,8.74,0,0,0,2-.69,3.13,3.13,0,0,0,.62-1.22q.35-1,1.44-4.57c.72-2.37,1.1-3.65,1.13-3.83s.15-.23.36-.17a2.8,2.8,0,0,1,.69.35,1.08,1.08,0,0,1,.47.69q.08.44.12.78a10.36,10.36,0,0,1-.46,2.36c-.35,1.33-.59,2.38-.74,3.14a2.74,2.74,0,0,0-.1,1.3c.09.11.47.07,1.14-.1s1,.11,1,.83a1.37,1.37,0,0,1-1.18,1.44c-.81.24-1.34.4-1.57.5s-.45.45-.65,1.06-.66,1.9-1.36,3.84-1.2,3.27-1.49,4a10.93,10.93,0,0,1-1.27,2.22c-.55.77-.69.51-.43-.8s.45-2.11.56-2.43a9.84,9.84,0,0,0,.34-1.57q.18-1.1.45-2.31c.18-.81.31-1.52.4-2.13s-.63-.69-2.14-.24L193,68c-1.38.41-2.22.91-2.51,1.52s-.83,2.14-1.64,4.58-1.31,4-1.53,4.7a3.18,3.18,0,0,1-.84,1.46q-.52.44-.9,0a7.26,7.26,0,0,0-.61-.62c-.15-.12.18-1.46,1-4s1.36-4.2,1.64-5,.21-1.22-.22-1.39a1,1,0,0,1-.73-.77,2.39,2.39,0,0,1,.05-1,1.89,1.89,0,0,1,1-1,12.37,12.37,0,0,0,1.22-.78,3.19,3.19,0,0,0,.78-1.22c.27-.61.53-1.25.79-1.91s.75-2,1.49-3.91,1.45-3.83,2.17-5.66a13.45,13.45,0,0,1,1.28-2.83A2.2,2.2,0,0,0,195.8,50Z"/><path class="cls-2" d="M213.83,65a1.38,1.38,0,0,1,.86-.18.64.64,0,0,1,.5.34,5.25,5.25,0,0,1-.28,2,25.62,25.62,0,0,0-.56,3,2.52,2.52,0,0,0,.23,1.75,1.24,1.24,0,0,0,1.3.36,3.72,3.72,0,0,0,2-1.24c.72-.73.8-.77.25-.1s-1.07,1.26-1.55,1.79a3.63,3.63,0,0,1-1.25,1,2.34,2.34,0,0,1-1.25.09,2.08,2.08,0,0,1-1.16-.56,3.26,3.26,0,0,1-.7-1.07,2.41,2.41,0,0,1-.05-1.52,11.66,11.66,0,0,0,.27-1.56c0-.43-.14-.41-.53.07a19.18,19.18,0,0,1-1.44,1.58,12.18,12.18,0,0,1-1.81,1.51,6.77,6.77,0,0,1-1.52.84,5.36,5.36,0,0,1-1.1.27,1.52,1.52,0,0,1-1-.19,1.26,1.26,0,0,1-.58-.88,4.09,4.09,0,0,1,.23-1.78c.24-.79.63-1.86,1.19-3.22s.39-2.09-.48-2.18a4.43,4.43,0,0,1-2-.58c-.44-.28-.17-.25.79.12s1.64.33,2-.1a2.19,2.19,0,0,1,1-.78,1.56,1.56,0,0,1,.91,0,.9.9,0,0,1,.57.57,1.67,1.67,0,0,1-.05,1c-.12.37-.52,1.36-1.2,3s-.69,2.3-.05,2.11,1.79-1.11,3.44-2.77A25.64,25.64,0,0,1,213.83,65Z"/><path class="cls-2" d="M224.58,49.51a1.07,1.07,0,0,1,.8-.09,2.44,2.44,0,0,1,1.13.56c.37.31.32.78-.15,1.39a23.9,23.9,0,0,0-1.59,2.5q-.89,1.58-2.09,4.3c-.81,1.82-1.15,3-1,3.5a2.44,2.44,0,0,0,.78,1.3,2.89,2.89,0,0,0,2,.49c.92,0,2.65-.1,5.18-.23s2.71-.1.56.09-3.77.37-4.84.54-1.44.7-1.11,1.61a13.87,13.87,0,0,1,.62,2.07,4.55,4.55,0,0,1,0,1.52,4.11,4.11,0,0,1-.73,1.7,8.58,8.58,0,0,1-1.3,1.53,3.43,3.43,0,0,1-1.4.85,3.35,3.35,0,0,1-3.13-.92,4.07,4.07,0,0,1-.91-2,9.83,9.83,0,0,1-.22-2.58,15.26,15.26,0,0,1,1.12-4.1q1.06-2.82,1.84-4.5c.51-1.12,1.23-2.75,2.13-4.87s1.44-3.34,1.59-3.66A5.16,5.16,0,0,1,224.58,49.51ZM221.4,65.65c-.44-.56-.84-.58-1.21,0a3.66,3.66,0,0,0-.65,1.59,7.37,7.37,0,0,0-.06,1.46,3.36,3.36,0,0,0,.4,1.35,1,1,0,0,0,1,.66,1.52,1.52,0,0,0,1.08-.53,3,3,0,0,0,.62-1.22,2.55,2.55,0,0,0-.17-1.58A6.27,6.27,0,0,0,221.4,65.65Z"/></g></g></svg>